<?xml version="1.0" encoding="UTF-8"?>
<!DOCTYPE svg PUBLIC "-//W3C//DTD SVG 1.1//EN"
  "http://www.w3.org/Graphics/SVG/1.1/DTD/svg11.dtd">
<!-- Created with Inkpad (http://www.taptrix.com/) --><svg xmlns:inkpad="http://taptrix.com/inkpad/svg_extensions" height="30pt" xmlns:xlink="http://www.w3.org/1999/xlink" xmlns="http://www.w3.org/2000/svg" width="83pt" version="1.1" viewBox="0,0,663,240">
<defs/>
<g id="g10" inkpad:layerName="g10">
<g opacity="1">
<path d="M116.785+64.8707L120.36+64.8707L120.36+51.56L116.785+51.56L116.785+64.8707" opacity="1" fill="#d91c2e"/>
<path d="M99.5323+103.311C100.718+104.047+101.908+104.792+103.108+105.549L103.108+97.224L99.5323+97.224L99.5323+103.311" opacity="1" fill="#d91c2e"/>
<path d="M99.5323+64.8707L103.108+64.8707L103.108+51.56L99.5323+51.56L99.5323+64.8707" opacity="1" fill="#d91c2e"/>
<path d="M99.5323+87.7013L103.108+87.7013L103.108+74.392L99.5323+74.392L99.5323+87.7013" opacity="1" fill="#d91c2e"/>
<path d="M116.785+87.7013L120.36+87.7013L120.36+74.392L116.785+74.392L116.785+87.7013" opacity="1" fill="#d91c2e"/>
<path d="M99.5323+156.196L103.108+156.196L103.108+154.833C101.905+153.927+100.718+153.02+99.5323+152.114L99.5323+156.196" opacity="1" fill="#d91c2e"/>
<path d="M108.16+87.7013L111.733+87.7013L111.733+74.392L108.16+74.392L108.16+87.7013" opacity="1" fill="#d91c2e"/>
<path d="M224.885+51.56L125.41+51.56L125.41+64.8707L224.885+64.8707L224.885+74.392L125.41+74.392L125.41+87.7013L224.885+87.7013L224.885+97.224L125.41+97.224L125.41+110.534L224.885+110.534L224.885+120.055L125.41+120.055L125.41+120.388C129.125+122.974+132.871+125.636+136.645+128.381C138.928+130.044+141.171+131.707+143.393+133.367L224.885+133.367L224.885+142.886L155.831+142.886C161.563+147.391+167.024+151.844+172.164+156.196L224.885+156.196L224.885+165.72L183.073+165.72C208.779+188.867+223.563+207.791+219.125+213.903C213.003+222.351+172.365+203.435+125.41+170.951L125.41+222.614L120.36+222.614L120.36+167.42C119.558+166.856+118.759+166.293+117.954+165.72L116.785+165.72L116.785+222.614L111.733+222.614L111.733+165.72L108.16+165.72L108.16+222.614L103.108+222.614L103.108+165.72L99.5323+165.72L99.5323+222.614L94.4828+222.614L94.4828+148.207C93.2771+147.263+92.0885+146.325+90.9047+145.388L90.9047+222.614L85.8557+222.614L85.8557+141.337C84.6473+140.357+83.4593+139.384+82.2803+138.412L82.2803+222.614L77.2307+222.614L77.2307+134.195C76.0208+133.173+74.8297+132.156+73.6547+131.144L73.6547+222.614L68.6027+222.614L68.6027+126.737C67.3917+125.661+66.1989+124.594+65.0303+123.535L65.0303+222.614L59.9781+222.614L59.9781+118.871C58.7568+117.723+57.5651+116.59+56.4047+115.47L56.4047+222.614L51.3527+222.614L51.3527+110.485C50.1136+109.231+48.9255+108.002+47.7803+106.792L47.7803+222.614L42.7281+222.614L42.7281+101.275C41.4593+99.8333+40.2552+98.4253+39.1511+97.0733L39.1511+222.614L34.1005+222.614L34.1005+90.3413C32.5495+88.0373+31.3541+85.9427+30.526+84.0747L30.526+222.614L25.4765+222.614L25.4765+17.376L30.526+17.376L30.526+75.6493C31.3593+74.908+32.5563+74.4613+34.1005+74.3013L34.1005+17.376L39.1511+17.376L39.1511+74.5667C40.264+74.744+41.4521+74.992+42.7281+75.312L42.7281+17.376L47.7803+17.376L47.7803+76.8067C48.9235+77.1907+50.1188+77.62+51.3527+78.084L51.3527+17.376L56.4047+17.376L56.4047+80.104C57.5651+80.5947+58.7588+81.1187+59.9781+81.6667L59.9781+17.376L65.0303+17.376L65.0303+84.0267C66.2005+84.5907+67.3917+85.176+68.6027+85.7853L68.6027+17.376L73.6547+17.376L73.6547+88.3747C74.8297+88.9933+76.0251+89.6347+77.2307+90.2867L77.2307+17.376L82.2803+17.376L82.2803+93.0787C83.4625+93.7427+84.6495+94.4147+85.8557+95.1093L85.8557+17.376L90.9047+17.376L90.9047+98.068C92.0901+98.7707+93.2771+99.4773+94.4828+100.208L94.4828+17.376L99.5323+17.376L99.5323+42.0373L103.108+42.0373L103.108+17.376L108.16+17.376L108.16+42.0373L111.733+42.0373L111.733+17.376L116.785+17.376L116.785+42.0373L120.36+42.0373L120.36+17.376L125.41+17.376L125.41+42.0373L224.885+42.0373L224.885+51.56ZM21.9011+222.614L16.8516+222.614L16.8516+17.376L21.9011+17.376L21.9011+222.614ZM14.9167+14.388L14.9167+224.596L226.896+224.596L226.896+14.388L14.9167+14.388" opacity="1" fill="#d91c2e"/>
<path d="M108.16+108.784C109.046+109.358+109.942+109.948+110.837+110.534L111.733+110.534L111.733+97.224L108.16+97.224L108.16+108.784" opacity="1" fill="#d91c2e"/>
<path d="M108.16+64.8707L111.733+64.8707L111.733+51.56L108.16+51.56L108.16+64.8707" opacity="1" fill="#d91c2e"/>
<path d="M116.785+110.534L120.36+110.534L120.36+97.224L116.785+97.224L116.785+110.534" opacity="1" fill="#d91c2e"/>
<path d="M116.785+156.196L120.36+156.196L120.36+142.886L116.785+142.886L116.785+156.196" opacity="1" fill="#d91c2e"/>
<path d="M56.4047+111.518C57.5427+112.692+58.7464+113.897+59.9781+115.115L59.9781+85.5107C58.7421+85.012+57.5511+84.56+56.4047+84.1453L56.4047+111.518" opacity="1" fill="#d91c2e"/>
<path d="M47.7803+101.993C48.8812+103.319+50.0765+104.696+51.3527+106.116L51.3527+82.52C50.0817+82.1667+48.8812+81.8747+47.7803+81.6693L47.7803+101.993" opacity="1" fill="#d91c2e"/>
<path d="M116.785+133.367L120.36+133.367L120.36+120.055L116.785+120.055L116.785+133.367" opacity="1" fill="#d91c2e"/>
<path d="M39.1511+88.836C39.8688+90.716+41.0693+92.8973+42.7281+95.3467L42.7281+81.308C41.0797+81.464+39.8724+81.9813+39.1511+82.884L39.1511+88.836" opacity="1" fill="#d91c2e"/>
<path d="M73.6547+127.866C74.8255+128.899+76.014+129.943+77.2307+130.993L77.2307+93.6307C76.0172+92.9947+74.8255+92.3813+73.6547+91.7893L73.6547+127.866" opacity="1" fill="#d91c2e"/>
<path d="M108.16+133.367L111.733+133.367L111.733+120.055L108.16+120.055L108.16+133.367" opacity="1" fill="#d91c2e"/>
<path d="M99.5323+133.367L103.108+133.367L103.108+120.055L99.5323+120.055L99.5323+133.367" opacity="1" fill="#d91c2e"/>
<path d="M65.0303+119.995C66.1891+121.087+67.3844+122.195+68.6027+123.314L68.6027+89.308C67.3844+88.7293+66.1927+88.18+65.0303+87.66L65.0303+119.995" opacity="1" fill="#d91c2e"/>
<path d="M90.9047+142.388C92.0849+143.336+93.2751+144.288+94.4828+145.24L94.4828+103.36C93.2771+102.639+92.086+101.935+90.9047+101.243L90.9047+142.388" opacity="1" fill="#d91c2e"/>
<path d="M99.5323+110.534L103.108+110.534L103.108+108.659C101.906+107.904+100.715+107.16+99.5323+106.431L99.5323+110.534" opacity="1" fill="#d91c2e"/>
<path d="M82.2803+135.3C83.4541+136.285+84.6459+137.279+85.8557+138.275L85.8557+98.3333C84.6473+97.652+83.4593+96.988+82.2803+96.3427L82.2803+135.3" opacity="1" fill="#d91c2e"/>
<path d="M125.41+168.115C167.547+197.261+203.893+214.32+209.284+206.884C213.079+201.659+200.649+185.604+178.815+165.72L125.41+165.72L125.41+168.115" opacity="1" fill="#d91c2e"/>
<path d="M108.16+155.732C108.369+155.888+108.571+156.04+108.782+156.196L111.733+156.196L111.733+142.886L108.16+142.886L108.16+155.732" opacity="1" fill="#d91c2e"/>
<path d="M99.5323+149.192C100.714+150.103+101.905+151.016+103.108+151.929L103.108+142.886L99.5323+142.886L99.5323+149.192" opacity="1" fill="#d91c2e"/>
<path d="M125.41+156.196L167.979+156.196C162.871+151.859+157.413+147.404+151.645+142.886L125.41+142.886L125.41+156.196" opacity="1" fill="#d91c2e"/>
<path d="M125.41+133.367L139.143+133.367C137.725+132.316+136.293+131.263+134.849+130.211C131.68+127.908+128.531+125.665+125.41+123.482L125.41+133.367" opacity="1" fill="#d91c2e"/>
<path d="M269.235+16.0093L269.235+107.586L246.352+107.586L246.352+16.0093L269.235+16.0093" opacity="1" fill="#100f0d"/>
<path d="M313.283+69.172L313.283+90.8053L326.169+90.8053C332.26+90.8053+336.64+89.964+339.32+88.2813C341.992+86.5973+343.329+83.68+343.329+79.5293C343.329+76.3387+342.06+73.816+339.515+71.9573C336.972+70.0987+333.575+69.172+329.324+69.172L313.283+69.172ZM313.283+32.7893L313.283+52.3893L325.245+52.3893C328.928+52.3893+331.8+51.448+333.861+49.572C335.921+47.6933+336.949+45.3307+336.949+42.4893C336.949+39.6933+335.921+37.3787+333.861+35.544C331.8+33.7067+328.928+32.7893+325.245+32.7893L313.283+32.7893ZM290.4+16.0093L330.115+16.0093C339.583+16.0093+347.024+18.2787+352.435+22.8213C357.851+27.3627+360.552+32.7307+360.552+38.9333C360.552+46.8787+356.365+52.9707+347.997+57.208C354.307+58.8693+359.139+61.8+362.495+65.9973C365.847+70.1973+367.521+75.096+367.521+80.6893C367.521+88.6507+364.785+95.124+359.304+100.107C353.824+105.092+345.76+107.586+335.111+107.586L290.4+107.586L290.4+16.0093" opacity="1" fill="#100f0d"/>
<path d="M408.22+32.7893L408.22+54.028L418.869+54.028C428.38+54.028+433.139+50.488+433.139+43.4093C433.139+39.4333+431.867+36.668+429.325+35.1147C426.784+33.5667+422.443+32.7893+416.308+32.7893L408.22+32.7893ZM385.337+16.0093L426.301+16.0093C435.593+16.0093+442.979+18.6947+448.457+24.0707C453.936+29.4453+456.676+35.8053+456.676+43.148C456.676+50.752+453.971+57.264+448.555+62.6827C443.143+68.1013+435.768+70.808+426.432+70.808L408.22+70.808L408.22+107.586L385.337+107.586L385.337+16.0093" opacity="1" fill="#100f0d"/>
<path d="M535.048+21.9053L535.048+39.8027C522.86+34.3413+513.155+31.6093+505.92+31.6093C501.803+31.6093+498.527+32.296+496.092+33.6747C493.657+35.0493+492.445+36.8747+492.445+39.148C492.445+40.8973+493.319+42.5547+495.075+44.1307C496.825+45.7027+501.099+47.736+507.893+50.2267C514.689+52.7187+520.124+55.0333+524.199+57.176C528.273+59.3173+531.789+62.3333+534.751+66.2213C537.709+70.112+539.188+75.0307+539.188+80.9707C539.188+89.4493+535.952+96.2027+529.492+101.228C523.028+106.253+514.511+108.766+503.948+108.766C492.552+108.766+481.508+105.816+470.811+99.9147L470.811+80.1827C476.949+84.292+482.385+87.288+487.117+89.1653C491.853+91.044+496.868+91.9853+502.173+91.9853C511.155+91.9853+515.649+89.1653+515.649+83.532C515.649+81.612+514.751+79.8+512.953+78.096C511.155+76.392+506.828+74.32+499.967+71.8707C493.108+69.424+487.673+67.1547+483.661+65.0533C479.652+62.9573+476.193+59.9613+473.276+56.0707C470.361+52.1827+468.907+47.1973+468.907+41.1213C468.907+33.2533+472.084+26.9053+478.436+22.0733C484.793+17.24+493.3+14.8267+503.948+14.8267C513.767+14.8267+524.132+17.1893+535.048+21.9053" opacity="1" fill="#100f0d"/>
<path d="M609.728+73.4973L594.839+37.9L581.349+73.4973L609.728+73.4973ZM607.796+16.0093L648.588+107.586L623.987+107.586L616.419+89.492L575.288+89.492L568.425+107.586L544.184+107.586L581.283+16.0093L607.796+16.0093" opacity="1" fill="#100f0d"/>
<path d="M315.323+131.181L315.323+182.248C315.323+189.512+313.203+195.127+308.971+199.057C304.733+202.99+299.117+204.94+292.061+204.94C285.269+204.94+279.753+203.028+275.584+199.157C271.385+195.327+269.299+190.219+269.299+183.827L269.299+131.181L246.339+131.181L246.339+183.324C246.339+196.433+250.371+206.486+258.408+213.483C266.475+220.472+277.775+223.971+292.296+223.971C307.051+223.971+318.38+220.509+326.316+213.584C334.251+206.688+338.185+196.536+338.185+183.191L338.185+131.181L315.323+131.181" opacity="1" fill="#100f0d"/>
<path d="M420.083+181.408C417.123+177.51+413.625+174.517+409.527+172.364C405.455+170.214+400.009+167.893+393.217+165.407C386.429+162.917+382.159+160.903+380.412+159.319C378.663+157.74+377.785+156.092+377.785+154.345C377.785+152.059+378.997+150.243+381.416+148.864C383.873+147.485+387.136+146.78+391.268+146.78C398.499+146.78+408.213+149.537+420.384+154.983L420.384+137.097C409.456+132.391+399.101+130.004+389.283+130.004C378.631+130.004+370.12+132.425+363.767+137.265C357.415+142.107+354.256+148.427+354.256+156.295C354.256+162.38+355.7+167.357+358.624+171.255C361.517+175.155+364.979+178.147+369.016+180.232C373.013+182.348+378.459+184.6+385.317+187.055C392.176+189.512+396.479+191.596+398.295+193.276C400.076+194.991+400.983+196.805+400.983+198.724C400.983+204.371+396.479+207.16+387.504+207.16C382.191+207.16+377.183+206.219+372.444+204.371C367.736+202.486+362.291+199.495+356.136+195.359L356.136+215.093C366.828+221.014+377.887+223.971+389.283+223.971C399.841+223.971+408.348+221.448+414.835+216.408C421.292+211.397+424.516+204.639+424.516+196.168C424.516+190.219+423.039+185.308+420.083+181.408" opacity="1" fill="#100f0d"/>
<path d="M466.679+188.671L476.628+162.514L480.192+153.1L480.328+153.368L492.06+181.543L495.051+188.671L466.679+188.671ZM502.883+153.1L493.136+131.181L466.608+131.181L429.527+222.76L453.765+222.76L460.628+204.672L501.741+204.672L509.34+222.76L533.916+222.76L502.883+153.1" opacity="1" fill="#100f0d"/>
<path d="M648.588+194.991L648.588+205.077L548.741+205.077L544.237+194.991L648.588+194.991" opacity="1" fill="#d91c2e"/>
<path d="M648.588+170.314L648.588+180.4L537.748+180.4L533.243+170.314L648.588+170.314" opacity="1" fill="#2c358e"/>
<path d="M648.588+145.671L648.588+155.756L526.789+155.756L522.284+145.671L648.588+145.671" opacity="1" fill="#d91c2e"/>
</g>
</g>
</svg>
